<svg xmlns="http://www.w3.org/2000/svg" xmlns:xlink="http://www.w3.org/1999/xlink" viewBox="0 0 273.98 48.08"><defs><style>.cls-1{fill:none;}.cls-2{isolation:isolate;}.cls-3{clip-path:url(#clip-path);}.cls-4{fill:#fff;}.cls-5{opacity:0.4;}.cls-6{clip-path:url(#clip-path-3);}.cls-7{fill:#00b3e3;}.cls-8{fill:#263746;}.cls-9{fill:#1a82e2;}.cls-10{mix-blend-mode:multiply;}.cls-11{clip-path:url(#clip-path-4);}</style><clipPath id="clip-path" transform="translate(0 0)"><rect class="cls-1" width="273.98" height="48.08"/></clipPath><clipPath id="clip-path-3" transform="translate(0 0)"><rect class="cls-1" y="15.85" width="31.69" height="31.69"/></clipPath><clipPath id="clip-path-4" transform="translate(0 0)"><rect class="cls-1" x="15.85" width="31.69" height="31.69"/></clipPath></defs><title>logo</title><g class="cls-2"><g id="レイヤー_1" data-name="レイヤー 1"><g class="cls-3"><polygon class="cls-4" points="15.85 0 15.85 15.85 0 15.85 0 47.54 31.69 47.54 31.69 31.69 47.54 31.69 47.54 0 15.85 0"/><g class="cls-3"><g class="cls-5"><g class="cls-6"><polygon class="cls-7" points="0 15.85 0 31.69 15.85 31.69 15.85 47.54 31.69 47.54 31.69 15.85 0 15.85"/></g></g><path class="cls-8" d="M56.43,41l6.89-5.43a9.88,9.88,0,0,0,8.57,5.32c3.85,0,5.92-2.5,5.92-5.21,0-3.26-4-4.29-8.19-5.59-5.32-1.63-11.23-3.69-11.23-11.29,0-6.35,5.53-11.4,13.19-11.4a17,17,0,0,1,13.35,5.75l-6.24,4.72a8,8,0,0,0-7.06-3.74c-3.53,0-5.43,1.9-5.43,4.4,0,3,3.8,4.07,8,5.48,5.37,1.74,11.45,4.12,11.45,11.72,0,6.3-5,12.37-13.73,12.37A19.61,19.61,0,0,1,56.43,41m60.7-20.57h7.38v3A9.34,9.34,0,0,1,132,19.86c6.4,0,10.26,4.12,10.26,11.13V47.54h-7.54V32c0-3.64-1.68-5.75-5-5.75-2.82,0-5.16,2-5.16,6.51V47.54h-7.43V20.4ZM144,34c0-9.61,7.05-14.11,13.19-14.11a10.87,10.87,0,0,1,8.09,3.2V7.92h7.44V47.54h-7.44v-3a10.58,10.58,0,0,1-8.19,3.58C151.33,48.08,144,43.52,144,34m21.49-.06a7,7,0,0,0-6.95-7.27,7.11,7.11,0,0,0-7.27,7.27,7.15,7.15,0,0,0,7.27,7.33,7,7,0,0,0,6.95-7.33m9-6.19A19.93,19.93,0,0,1,194.7,7.38a20.59,20.59,0,0,1,14.36,5.47,19.75,19.75,0,0,1,3.65,4.67l-6.62,4a12.1,12.1,0,0,0-11.34-6.84,12.88,12.88,0,0,0-12.81,13,12.77,12.77,0,0,0,13.08,13c5.75,0,9.82-3.26,11.23-8.3H193.83V25.23H214.4v3c0,10.64-7.6,19.81-19.37,19.81-12.37,0-20.57-9.39-20.57-20.35m41.83-7.33h7.38v4.45c1.36-2.82,3.8-4.45,7.49-4.45h3l-2.7,7.22h-2c-4,0-5.7,2.06-5.7,7.11V47.54h-7.43V20.4Zm19.8,0h7.43V47.54h-7.43V27.62h-2.7Zm3.72-4.13a4.45,4.45,0,1,0-4.45-4.45,4.45,4.45,0,0,0,4.45,4.45M245.27,34c0-9.61,7.06-14.11,13.19-14.11a10.87,10.87,0,0,1,8.09,3.2V7.92H274V47.54h-7.43v-3a10.57,10.57,0,0,1-8.19,3.58c-5.75,0-13.08-4.56-13.08-14.11m21.49-.06a7,7,0,0,0-6.95-7.27,7.11,7.11,0,0,0-7.27,7.27,7.15,7.15,0,0,0,7.27,7.33,7,7,0,0,0,6.95-7.33m-151.36,0a13.65,13.65,0,0,0-14-14.06A14.08,14.08,0,0,0,87.29,34a14.47,14.47,0,0,0,26.78,7.23l-5.9-3.52a7.18,7.18,0,0,1-6.5,3.89c-3.91,0-6.35-2-7.22-4.94H115.4V33.92ZM94.77,30.66a7.09,7.09,0,0,1,6.67-4.29c3.15,0,5.48,1.47,6.46,4.29H94.77Z" transform="translate(0 0)"/><rect class="cls-9" y="31.69" width="15.85" height="15.85"/><g class="cls-10"><g class="cls-11"><polygon class="cls-7" points="31.69 15.85 31.69 0 15.85 0 15.85 15.85 15.85 31.69 31.69 31.69 47.54 31.69 47.54 15.85 31.69 15.85"/></g></g><rect class="cls-9" x="31.69" width="15.85" height="15.85"/></g></g></g></g></svg>